<?xml version="1.0" encoding="UTF-8"?>
<!DOCTYPE svg PUBLIC "-//W3C//DTD SVG 1.1//EN" "http://www.w3.org/Graphics/SVG/1.1/DTD/svg11.dtd">
<svg xmlns="http://www.w3.org/2000/svg" style="background: transparent; background-color: transparent; color-scheme: light dark;" xmlns:xlink="http://www.w3.org/1999/xlink" version="1.1" width="1653px" height="1052px" viewBox="0 0 1653 1052" id="ge-svg-F0F48-m1tt_rzL_BuyfP"><style type="text/css">@supports (color: light-dark(#000, #fff)) { #ge-svg-F0F48-m1tt_rzL_BuyfP { --ge-adaptive-bg: light-dark(#ffffff, var(--ge-dark-color, #121212)); } }</style><defs/><g><g data-cell-id="0"><g data-cell-id="1"><g data-cell-id="ref"><g transform="translate(0.5,0.5)"><rect x="0" y="0" width="20" height="20" fill="#ffffff" stroke="#000000" pointer-events="all" style="fill: var(--ge-adaptive-bg, #ffffff); stroke: light-dark(rgb(0, 0, 0), rgb(255, 255, 255));"/></g></g><g data-cell-id="s0"><g transform="translate(0.5,0.5)"><rect x="300" y="300" width="100" height="60" fill="#ffffff" stroke="#000000" pointer-events="all" style="fill: var(--ge-adaptive-bg, #ffffff); stroke: light-dark(rgb(0, 0, 0), rgb(255, 255, 255));"/></g></g><g data-cell-id="t0"><g transform="translate(0.5,0.5)"><rect x="550" y="420" width="80" height="50" fill="#ffffff" stroke="#000000" pointer-events="all" style="fill: var(--ge-adaptive-bg, #ffffff); stroke: light-dark(rgb(0, 0, 0), rgb(255, 255, 255));"/></g></g><g data-cell-id="a0"><g transform="translate(0.5,0.5)"><path d="M 400 330 L 430 330 L 520 445 L 550 445" fill="none" stroke="#000000" stroke-miterlimit="10" pointer-events="stroke" style="stroke: light-dark(rgb(0, 0, 0), rgb(255, 255, 255));"/></g></g><g data-cell-id="b0"><g transform="translate(0.5,0.5)"><path d="M 400 330 L 412 330 L 538 445 L 550 445" fill="none" stroke="#000000" stroke-miterlimit="10" pointer-events="stroke" style="stroke: light-dark(rgb(0, 0, 0), rgb(255, 255, 255));"/></g></g><g data-cell-id="c0"><g transform="translate(0.5,0.5)"><path d="M 300 330 L 330 330 L 520 445 L 550 445" fill="none" stroke="#000000" stroke-miterlimit="10" pointer-events="stroke" style="stroke: light-dark(rgb(0, 0, 0), rgb(255, 255, 255));"/></g></g><g data-cell-id="d0"><g transform="translate(0.5,0.5)"><path d="M 400 315 L 430 315 L 600 460 L 630 460" fill="none" stroke="#000000" stroke-miterlimit="10" pointer-events="stroke" style="stroke: light-dark(rgb(0, 0, 0), rgb(255, 255, 255));"/></g></g><g data-cell-id="f0"><g transform="translate(0.5,0.5)"><path d="M 550 445 L 520 445 L 430 330 L 400 330" fill="none" stroke="#000000" stroke-miterlimit="10" pointer-events="stroke" style="stroke: light-dark(rgb(0, 0, 0), rgb(255, 255, 255));"/></g></g><g data-cell-id="s1"><g transform="translate(0.5,0.5)"><rect x="900" y="300" width="100" height="60" fill="#ffffff" stroke="#000000" pointer-events="all" style="fill: var(--ge-adaptive-bg, #ffffff); stroke: light-dark(rgb(0, 0, 0), rgb(255, 255, 255));"/></g></g><g data-cell-id="t1"><g transform="translate(0.5,0.5)"><rect x="650" y="400" width="80" height="50" fill="#ffffff" stroke="#000000" pointer-events="all" style="fill: var(--ge-adaptive-bg, #ffffff); stroke: light-dark(rgb(0, 0, 0), rgb(255, 255, 255));"/></g></g><g data-cell-id="a1"><g transform="translate(0.5,0.5)"><path d="M 900 330 L 870 330 L 760 425 L 730 425" fill="none" stroke="#000000" stroke-miterlimit="10" pointer-events="stroke" style="stroke: light-dark(rgb(0, 0, 0), rgb(255, 255, 255));"/></g></g><g data-cell-id="b1"><g transform="translate(0.5,0.5)"><path d="M 900 330 L 888 330 L 742 425 L 730 425" fill="none" stroke="#000000" stroke-miterlimit="10" pointer-events="stroke" style="stroke: light-dark(rgb(0, 0, 0), rgb(255, 255, 255));"/></g></g><g data-cell-id="c1"><g transform="translate(0.5,0.5)"><path d="M 900 330 L 870 330 L 680 425 L 650 425" fill="none" stroke="#000000" stroke-miterlimit="10" pointer-events="stroke" style="stroke: light-dark(rgb(0, 0, 0), rgb(255, 255, 255));"/></g></g><g data-cell-id="d1"><g transform="translate(0.5,0.5)"><path d="M 1000 315 L 970 315 L 760 440 L 730 440" fill="none" stroke="#000000" stroke-miterlimit="10" pointer-events="stroke" style="stroke: light-dark(rgb(0, 0, 0), rgb(255, 255, 255));"/></g></g><g data-cell-id="f1"><g transform="translate(0.5,0.5)"><path d="M 730 425 L 760 425 L 870 330 L 900 330" fill="none" stroke="#000000" stroke-miterlimit="10" pointer-events="stroke" style="stroke: light-dark(rgb(0, 0, 0), rgb(255, 255, 255));"/></g></g><g data-cell-id="s2"><g transform="translate(0.5,0.5)"><rect x="1500" y="300" width="100" height="60" fill="#ffffff" stroke="#000000" pointer-events="all" style="fill: var(--ge-adaptive-bg, #ffffff); stroke: light-dark(rgb(0, 0, 0), rgb(255, 255, 255));"/></g></g><g data-cell-id="t2"><g transform="translate(0.5,0.5)"><rect x="1540" y="450" width="80" height="50" fill="#ffffff" stroke="#000000" pointer-events="all" style="fill: var(--ge-adaptive-bg, #ffffff); stroke: light-dark(rgb(0, 0, 0), rgb(255, 255, 255));"/></g></g><g data-cell-id="a2"><g transform="translate(0.5,0.5)"><path d="M 1600 330 L 1650 330 L 1650 475 L 1620 475" fill="none" stroke="#000000" stroke-miterlimit="10" pointer-events="stroke" style="stroke: light-dark(rgb(0, 0, 0), rgb(255, 255, 255));"/></g></g><g data-cell-id="b2"><g transform="translate(0.5,0.5)"><path d="M 1600 330 L 1632 330 L 1632 475 L 1620 475" fill="none" stroke="#000000" stroke-miterlimit="10" pointer-events="stroke" style="stroke: light-dark(rgb(0, 0, 0), rgb(255, 255, 255));"/></g></g><g data-cell-id="c2"><g transform="translate(0.5,0.5)"><path d="M 1500 330 L 1530 330 L 1530 402.5 L 1510 402.5 L 1510 475 L 1540 475" fill="none" stroke="#000000" stroke-miterlimit="10" pointer-events="stroke" style="stroke: light-dark(rgb(0, 0, 0), rgb(255, 255, 255));"/></g></g><g data-cell-id="d2"><g transform="translate(0.5,0.5)"><path d="M 1600 315 L 1630 315 L 1630 402.5 L 1590 402.5 L 1590 490 L 1620 490" fill="none" stroke="#000000" stroke-miterlimit="10" pointer-events="stroke" style="stroke: light-dark(rgb(0, 0, 0), rgb(255, 255, 255));"/></g></g><g data-cell-id="f2"><g transform="translate(0.5,0.5)"><path d="M 1620 475 L 1650 475 L 1650 330 L 1600 330" fill="none" stroke="#000000" stroke-miterlimit="10" pointer-events="stroke" style="stroke: light-dark(rgb(0, 0, 0), rgb(255, 255, 255));"/></g></g><g data-cell-id="s3"><g transform="translate(0.5,0.5)"><rect x="300" y="800" width="100" height="60" fill="#ffffff" stroke="#000000" pointer-events="all" style="fill: var(--ge-adaptive-bg, #ffffff); stroke: light-dark(rgb(0, 0, 0), rgb(255, 255, 255));"/></g></g><g data-cell-id="t3"><g transform="translate(0.5,0.5)"><rect x="300" y="1000" width="80" height="50" fill="#ffffff" stroke="#000000" pointer-events="all" style="fill: var(--ge-adaptive-bg, #ffffff); stroke: light-dark(rgb(0, 0, 0), rgb(255, 255, 255));"/></g></g><g data-cell-id="a3"><g transform="translate(0.5,0.5)"><path d="M 400 830 L 430 830 L 430 1025 L 380 1025" fill="none" stroke="#000000" stroke-miterlimit="10" pointer-events="stroke" style="stroke: light-dark(rgb(0, 0, 0), rgb(255, 255, 255));"/></g></g><g data-cell-id="b3"><g transform="translate(0.5,0.5)"><path d="M 400 830 L 412 830 L 412 1025 L 380 1025" fill="none" stroke="#000000" stroke-miterlimit="10" pointer-events="stroke" style="stroke: light-dark(rgb(0, 0, 0), rgb(255, 255, 255));"/></g></g><g data-cell-id="c3"><g transform="translate(0.5,0.5)"><path d="M 300 830 L 330 830 L 330 1025 L 300 1025" fill="none" stroke="#000000" stroke-miterlimit="10" pointer-events="stroke" style="stroke: light-dark(rgb(0, 0, 0), rgb(255, 255, 255));"/></g></g><g data-cell-id="d3"><g transform="translate(0.5,0.5)"><path d="M 400 815 L 370 815 L 370 927.5 L 410 927.5 L 410 1040 L 380 1040" fill="none" stroke="#000000" stroke-miterlimit="10" pointer-events="stroke" style="stroke: light-dark(rgb(0, 0, 0), rgb(255, 255, 255));"/></g></g><g data-cell-id="f3"><g transform="translate(0.5,0.5)"><path d="M 380 1025 L 430 1025 L 430 830 L 400 830" fill="none" stroke="#000000" stroke-miterlimit="10" pointer-events="stroke" style="stroke: light-dark(rgb(0, 0, 0), rgb(255, 255, 255));"/></g></g><g data-cell-id="s4"><g transform="translate(0.5,0.5)"><rect x="900" y="800" width="100" height="60" fill="#ffffff" stroke="#000000" pointer-events="all" style="fill: var(--ge-adaptive-bg, #ffffff); stroke: light-dark(rgb(0, 0, 0), rgb(255, 255, 255));"/></g></g><g data-cell-id="t4"><g transform="translate(0.5,0.5)"><rect x="1160" y="770" width="80" height="50" fill="#ffffff" stroke="#000000" pointer-events="all" style="fill: var(--ge-adaptive-bg, #ffffff); stroke: light-dark(rgb(0, 0, 0), rgb(255, 255, 255));"/></g></g><g data-cell-id="a4"><g transform="translate(0.5,0.5)"><path d="M 1000 830 L 1030 830 L 1130 795 L 1160 795" fill="none" stroke="#000000" stroke-miterlimit="10" pointer-events="stroke" style="stroke: light-dark(rgb(0, 0, 0), rgb(255, 255, 255));"/></g></g><g data-cell-id="b4"><g transform="translate(0.5,0.5)"><path d="M 1000 830 L 1012 830 L 1148 795 L 1160 795" fill="none" stroke="#000000" stroke-miterlimit="10" pointer-events="stroke" style="stroke: light-dark(rgb(0, 0, 0), rgb(255, 255, 255));"/></g></g><g data-cell-id="c4"><g transform="translate(0.5,0.5)"><path d="M 900 830 L 930 830 L 1130 795 L 1160 795" fill="none" stroke="#000000" stroke-miterlimit="10" pointer-events="stroke" style="stroke: light-dark(rgb(0, 0, 0), rgb(255, 255, 255));"/></g></g><g data-cell-id="d4"><g transform="translate(0.5,0.5)"><path d="M 1000 815 L 1030 815 L 1210 810 L 1240 810" fill="none" stroke="#000000" stroke-miterlimit="10" pointer-events="stroke" style="stroke: light-dark(rgb(0, 0, 0), rgb(255, 255, 255));"/></g></g><g data-cell-id="f4"><g transform="translate(0.5,0.5)"><path d="M 1160 795 L 1130 795 L 1030 830 L 1000 830" fill="none" stroke="#000000" stroke-miterlimit="10" pointer-events="stroke" style="stroke: light-dark(rgb(0, 0, 0), rgb(255, 255, 255));"/></g></g><g data-cell-id="tbl"><g transform="translate(0.5,0.5)"><path d="M 100 830 L 100 800 L 260 800 L 260 830" fill="#ffffff" stroke="#000000" stroke-miterlimit="10" pointer-events="all" style="fill: var(--ge-adaptive-bg, #ffffff); stroke: light-dark(rgb(0, 0, 0), rgb(255, 255, 255));"/><path d="M 100 830 L 100 920 L 260 920 L 260 830" fill="none" stroke="#000000" stroke-miterlimit="10" pointer-events="none" style="stroke: light-dark(rgb(0, 0, 0), rgb(255, 255, 255));"/><path d="M 100 830 L 260 830" fill="none" stroke="#000000" stroke-miterlimit="10" pointer-events="none" style="stroke: light-dark(rgb(0, 0, 0), rgb(255, 255, 255));"/></g><g data-cell-id="row1"><g transform="translate(0.5,0.5)"><rect x="100" y="830" width="160" height="30" fill="#ffffff" stroke="#000000" pointer-events="all" style="fill: var(--ge-adaptive-bg, #ffffff); stroke: light-dark(rgb(0, 0, 0), rgb(255, 255, 255));"/></g></g><g data-cell-id="row2"><g transform="translate(0.5,0.5)"><rect x="100" y="860" width="160" height="30" fill="#ffffff" stroke="#000000" pointer-events="all" style="fill: var(--ge-adaptive-bg, #ffffff); stroke: light-dark(rgb(0, 0, 0), rgb(255, 255, 255));"/></g></g></g><g data-cell-id="tb2"><g transform="translate(0.5,0.5)"><rect x="500" y="900" width="160" height="90" fill="#ffffff" stroke="#000000" pointer-events="all" style="fill: var(--ge-adaptive-bg, #ffffff); stroke: light-dark(rgb(0, 0, 0), rgb(255, 255, 255));"/></g><g data-cell-id="rel"><g transform="translate(0.5,0.5)"><rect x="650" y="935" width="20" height="20" fill="#ffffff" stroke="#000000" pointer-events="all" style="fill: var(--ge-adaptive-bg, #ffffff); stroke: light-dark(rgb(0, 0, 0), rgb(255, 255, 255));"/></g></g><g data-cell-id="rel2"><g transform="translate(0.5,0.5)"><rect x="490" y="935" width="20" height="20" fill="#ffffff" stroke="#000000" pointer-events="all" style="fill: var(--ge-adaptive-bg, #ffffff); stroke: light-dark(rgb(0, 0, 0), rgb(255, 255, 255));"/></g></g></g><g data-cell-id="r1"><g transform="translate(0.5,0.5)"><path d="M 260 845 L 290 845 L 470 945 L 500 945" fill="none" stroke="#000000" stroke-miterlimit="10" pointer-events="stroke" style="stroke: light-dark(rgb(0, 0, 0), rgb(255, 255, 255));"/></g></g><g data-cell-id="r2"><g transform="translate(0.5,0.5)"><path d="M 260 875 L 290 875 L 470 945 L 500 945" fill="none" stroke="#000000" stroke-miterlimit="10" pointer-events="stroke" style="stroke: light-dark(rgb(0, 0, 0), rgb(255, 255, 255));"/></g></g><g data-cell-id="r3"><g transform="translate(0.5,0.5)"><path d="M 670 945 L 700 945 L 700 845 L 260 845" fill="none" stroke="#000000" stroke-miterlimit="10" pointer-events="stroke" style="stroke: light-dark(rgb(0, 0, 0), rgb(255, 255, 255));"/></g></g><g data-cell-id="r4"><g transform="translate(0.5,0.5)"><path d="M 490 945 L 460 945 L 290 875 L 260 875" fill="none" stroke="#000000" stroke-miterlimit="10" pointer-events="stroke" style="stroke: light-dark(rgb(0, 0, 0), rgb(255, 255, 255));"/></g></g><g data-cell-id="pw"><g transform="translate(0.5,0.5)"><rect x="800" y="700" width="100" height="60" fill="#ffffff" stroke="#000000" pointer-events="all" style="fill: var(--ge-adaptive-bg, #ffffff); stroke: light-dark(rgb(0, 0, 0), rgb(255, 255, 255));"/></g></g><g data-cell-id="r5"><g transform="translate(0.5,0.5)"><path d="M 660 945 L 690 945 L 770 730 L 800 730" fill="none" stroke="#000000" stroke-miterlimit="10" pointer-events="stroke" style="stroke: light-dark(rgb(0, 0, 0), rgb(255, 255, 255));"/></g></g><g data-cell-id="r6"><g transform="translate(0.5,0.5)"><path d="M 800 730 L 770 730 L 690 945 L 660 945" fill="none" stroke="#000000" stroke-miterlimit="10" pointer-events="stroke" style="stroke: light-dark(rgb(0, 0, 0), rgb(255, 255, 255));"/></g></g><g data-cell-id="r7"><g transform="translate(0.5,0.5)"><path d="M 260 845 L 290 845 L 670 700 L 700 700" fill="none" stroke="#000000" stroke-miterlimit="10" pointer-events="stroke" style="stroke: light-dark(rgb(0, 0, 0), rgb(255, 255, 255));"/></g></g></g></g></g></svg>