<?xml version="1.0" encoding="UTF-8"?>
<!DOCTYPE svg PUBLIC "-//W3C//DTD SVG 1.1//EN" "http://www.w3.org/Graphics/SVG/1.1/DTD/svg11.dtd">
<svg xmlns="http://www.w3.org/2000/svg" style="background: transparent; background-color: transparent; color-scheme: light dark;" xmlns:xlink="http://www.w3.org/1999/xlink" version="1.1" width="602px" height="703px" viewBox="0 0 602 703" id="ge-svg-Ze4HyMBqzQnBxQRQ5Pmk"><style type="text/css">@supports (color: light-dark(#000, #fff)) { #ge-svg-Ze4HyMBqzQnBxQRQ5Pmk { --ge-adaptive-bg: light-dark(#ffffff, var(--ge-dark-color, #121212)); } }</style><defs/><g><g data-cell-id="0"><g data-cell-id="1"><g data-cell-id="ref"><g transform="translate(0.5,0.5)"><rect x="0" y="0" width="20" height="20" fill="#ffffff" stroke="#000000" pointer-events="all" style="fill: var(--ge-adaptive-bg, #ffffff); stroke: light-dark(rgb(0, 0, 0), rgb(255, 255, 255));"/></g></g><g data-cell-id="a"><g transform="translate(0.5,0.5)"><rect x="100" y="100" width="100" height="60" fill="#ffffff" stroke="#000000" pointer-events="all" style="fill: var(--ge-adaptive-bg, #ffffff); stroke: light-dark(rgb(0, 0, 0), rgb(255, 255, 255));"/></g></g><g data-cell-id="b"><g transform="translate(0.5,0.5)"><rect x="500" y="350" width="100" height="60" fill="#ffffff" stroke="#000000" pointer-events="all" style="fill: var(--ge-adaptive-bg, #ffffff); stroke: light-dark(rgb(0, 0, 0), rgb(255, 255, 255));"/></g></g><g data-cell-id="c"><g transform="translate(0.5,0.5)"><ellipse cx="140" cy="540" rx="40" ry="40" fill="#ffffff" stroke="#000000" pointer-events="all" style="fill: var(--ge-adaptive-bg, #ffffff); stroke: light-dark(rgb(0, 0, 0), rgb(255, 255, 255));"/></g></g><g data-cell-id="g1"><g transform="translate(0.5,0.5)"><path d="M 200 130 L 550 130 L 550 350" fill="none" stroke="#000000" stroke-miterlimit="10" pointer-events="stroke" style="stroke: light-dark(rgb(0, 0, 0), rgb(255, 255, 255));"/></g></g><g data-cell-id="g2"><g transform="translate(0.5,0.5)"><path d="M 200 130 L 300 130 L 300 380 L 500 380" fill="none" stroke="#000000" stroke-miterlimit="10" pointer-events="stroke" style="stroke: light-dark(rgb(0, 0, 0), rgb(255, 255, 255));"/></g></g><g data-cell-id="g3"><g transform="translate(0.5,0.5)"><path d="M 150 160 L 150 250 L 300 250 L 300 300 L 550 300 L 550 350" fill="none" stroke="#000000" stroke-miterlimit="10" pointer-events="stroke" style="stroke: light-dark(rgb(0, 0, 0), rgb(255, 255, 255));"/></g></g><g data-cell-id="g4"><g transform="translate(0.5,0.5)"><path d="M 150 160 L 150 250 L 550 250 L 550 350" fill="none" stroke="#000000" stroke-miterlimit="10" pointer-events="stroke" style="stroke: light-dark(rgb(0, 0, 0), rgb(255, 255, 255));"/></g></g><g data-cell-id="g5"><g transform="translate(0.5,0.5)"><path d="M 200 130 L 200 200 L 350 200 L 350 380 L 500 380" fill="none" stroke="#000000" stroke-miterlimit="10" pointer-events="stroke" style="stroke: light-dark(rgb(0, 0, 0), rgb(255, 255, 255));"/></g></g><g data-cell-id="g6"><g transform="translate(0.5,0.5)"><path d="M 100 130 L 40 130 L 40 300 L 160 300 L 160 505.36" fill="none" stroke="#000000" stroke-miterlimit="10" pointer-events="stroke" style="stroke: light-dark(rgb(0, 0, 0), rgb(255, 255, 255));"/></g></g><g data-cell-id="g7"><g transform="translate(0.5,0.5)"><path d="M 500 380 L 300 380 L 300 540 L 180 540" fill="none" stroke="#000000" stroke-miterlimit="10" pointer-events="stroke" style="stroke: light-dark(rgb(0, 0, 0), rgb(255, 255, 255));"/></g></g><g data-cell-id="g8"><g transform="translate(0.5,0.5)"><path d="M 200 130 L 550 130 L 550 350" fill="none" stroke="#000000" stroke-miterlimit="10" pointer-events="stroke" style="stroke: light-dark(rgb(0, 0, 0), rgb(255, 255, 255));"/></g></g><g data-cell-id="g9"><g transform="translate(0.5,0.5)"><path d="M 150 160 L 150 300 L 140 300 L 140 500" fill="none" stroke="#000000" stroke-miterlimit="10" pointer-events="stroke" style="stroke: light-dark(rgb(0, 0, 0), rgb(255, 255, 255));"/></g></g><g data-cell-id="g10"><g transform="translate(0.5,0.5)"><path d="M 200 130 L 250 130 L 250 60 L 150 60 L 150 100" fill="none" stroke="#000000" stroke-miterlimit="10" pointer-events="stroke" style="stroke: light-dark(rgb(0, 0, 0), rgb(255, 255, 255));"/></g></g><g data-cell-id="g11"><g transform="translate(0.5,0.5)"><path d="M 300 450 L 400 450 L 400 380 L 500 380" fill="none" stroke="#000000" stroke-miterlimit="10" pointer-events="stroke" style="stroke: light-dark(rgb(0, 0, 0), rgb(255, 255, 255));"/></g></g><g data-cell-id="g12"><g transform="translate(0.5,0.5)"><path d="M 140 580 L 140 600 L 300 600 L 300 700 L 400 700" fill="none" stroke="#000000" stroke-miterlimit="10" pointer-events="stroke" style="stroke: light-dark(rgb(0, 0, 0), rgb(255, 255, 255));"/></g></g><g data-cell-id="g13"><g transform="translate(0.5,0.5)"><path d="M 200 130 L 500 130 L 500 380" fill="none" stroke="#000000" stroke-miterlimit="10" pointer-events="stroke" style="stroke: light-dark(rgb(0, 0, 0), rgb(255, 255, 255));"/></g></g><g data-cell-id="g14"><g transform="translate(0.5,0.5)"><path d="M 200 130 L 350 130 L 350 380 L 500 380" fill="none" stroke="#000000" stroke-miterlimit="10" pointer-events="stroke" style="stroke: light-dark(rgb(0, 0, 0), rgb(255, 255, 255));"/></g></g></g></g></g></svg>